<mxfile host="app.diagrams.net" modified="2020-08-19T18:58:02.548Z" agent="5.0 (Windows NT 10.0; Win64; x64) AppleWebKit/537.36 (KHTML, like Gecko) Chrome/84.0.4147.125 Safari/537.36" etag="IJ_0lfFBcQpRp_H11xuE" version="13.6.3" type="github">
  <diagram id="oSM0W3Erjih9ODZ4Tuiz" name="Page-1">
    <mxGraphModel dx="1813" dy="496" grid="1" gridSize="10" guides="1" tooltips="1" connect="1" arrows="1" fold="1" page="1" pageScale="1" pageWidth="827" pageHeight="1169" background="#FFFFFF" math="0" shadow="0">
      <root>
        <mxCell id="0" />
        <mxCell id="1" parent="0" />
        <mxCell id="tAQa_KuwIjuZp4DGvMyW-7" value="" style="rounded=0;whiteSpace=wrap;html=1;fillColor=none;" vertex="1" parent="1">
          <mxGeometry x="90" y="15" width="770" height="1695" as="geometry" />
        </mxCell>
        <mxCell id="tAQa_KuwIjuZp4DGvMyW-3" value="Member" style="shape=umlActor;verticalLabelPosition=bottom;verticalAlign=top;html=1;" vertex="1" parent="1">
          <mxGeometry x="10" y="530" width="40" height="75" as="geometry" />
        </mxCell>
        <mxCell id="tAQa_KuwIjuZp4DGvMyW-5" value="Guest" style="shape=umlActor;verticalLabelPosition=bottom;verticalAlign=top;html=1;" vertex="1" parent="1">
          <mxGeometry x="10" y="200" width="40" height="70" as="geometry" />
        </mxCell>
        <mxCell id="tAQa_KuwIjuZp4DGvMyW-8" value="Voting System For Reality Show" style="text;html=1;strokeColor=none;fillColor=none;align=center;verticalAlign=middle;whiteSpace=wrap;rounded=0;fontStyle=1;fontSize=18;" vertex="1" parent="1">
          <mxGeometry x="280" y="20" width="340" height="20" as="geometry" />
        </mxCell>
        <mxCell id="tAQa_KuwIjuZp4DGvMyW-9" value="Search for Artists" style="ellipse;whiteSpace=wrap;html=1;fillColor=none;" vertex="1" parent="1">
          <mxGeometry x="160" y="140" width="140" height="40" as="geometry" />
        </mxCell>
        <mxCell id="tAQa_KuwIjuZp4DGvMyW-14" value="" style="endArrow=none;html=1;exitX=1;exitY=0.3333333333333333;exitDx=0;exitDy=0;exitPerimeter=0;entryX=0;entryY=0.5;entryDx=0;entryDy=0;" edge="1" parent="1" source="tAQa_KuwIjuZp4DGvMyW-5" target="tAQa_KuwIjuZp4DGvMyW-21">
          <mxGeometry width="50" height="50" relative="1" as="geometry">
            <mxPoint x="110" y="180" as="sourcePoint" />
            <mxPoint x="160" y="130" as="targetPoint" />
            <Array as="points" />
          </mxGeometry>
        </mxCell>
        <mxCell id="tAQa_KuwIjuZp4DGvMyW-16" value="View Artists profile" style="ellipse;whiteSpace=wrap;html=1;fillColor=none;" vertex="1" parent="1">
          <mxGeometry x="160" y="190" width="140" height="40" as="geometry" />
        </mxCell>
        <mxCell id="tAQa_KuwIjuZp4DGvMyW-17" value="View schedule" style="ellipse;whiteSpace=wrap;html=1;fillColor=none;" vertex="1" parent="1">
          <mxGeometry x="160" y="240" width="140" height="40" as="geometry" />
        </mxCell>
        <mxCell id="tAQa_KuwIjuZp4DGvMyW-18" value="Watch previews of auditions" style="ellipse;whiteSpace=wrap;html=1;fillColor=none;" vertex="1" parent="1">
          <mxGeometry x="161" y="293" width="140" height="40" as="geometry" />
        </mxCell>
        <mxCell id="tAQa_KuwIjuZp4DGvMyW-19" value="Reserve tickets" style="ellipse;whiteSpace=wrap;html=1;fillColor=none;" vertex="1" parent="1">
          <mxGeometry x="161" y="342" width="140" height="40" as="geometry" />
        </mxCell>
        <mxCell id="tAQa_KuwIjuZp4DGvMyW-21" value="Register" style="ellipse;whiteSpace=wrap;html=1;fillColor=none;" vertex="1" parent="1">
          <mxGeometry x="158" y="92" width="140" height="40" as="geometry" />
        </mxCell>
        <mxCell id="tAQa_KuwIjuZp4DGvMyW-22" value="" style="endArrow=none;html=1;entryX=0;entryY=0.5;entryDx=0;entryDy=0;exitX=1;exitY=0.3333333333333333;exitDx=0;exitDy=0;exitPerimeter=0;" edge="1" parent="1" source="tAQa_KuwIjuZp4DGvMyW-5" target="tAQa_KuwIjuZp4DGvMyW-9">
          <mxGeometry width="50" height="50" relative="1" as="geometry">
            <mxPoint x="60" y="170" as="sourcePoint" />
            <mxPoint x="168" y="122" as="targetPoint" />
            <Array as="points" />
          </mxGeometry>
        </mxCell>
        <mxCell id="tAQa_KuwIjuZp4DGvMyW-23" value="" style="endArrow=none;html=1;exitX=1;exitY=0.3333333333333333;exitDx=0;exitDy=0;exitPerimeter=0;entryX=0;entryY=0.5;entryDx=0;entryDy=0;" edge="1" parent="1" source="tAQa_KuwIjuZp4DGvMyW-5" target="tAQa_KuwIjuZp4DGvMyW-16">
          <mxGeometry width="50" height="50" relative="1" as="geometry">
            <mxPoint x="80" y="190" as="sourcePoint" />
            <mxPoint x="178" y="132" as="targetPoint" />
            <Array as="points" />
          </mxGeometry>
        </mxCell>
        <mxCell id="tAQa_KuwIjuZp4DGvMyW-24" value="" style="endArrow=none;html=1;entryX=0;entryY=0.5;entryDx=0;entryDy=0;exitX=1;exitY=0.3333333333333333;exitDx=0;exitDy=0;exitPerimeter=0;" edge="1" parent="1" source="tAQa_KuwIjuZp4DGvMyW-5" target="tAQa_KuwIjuZp4DGvMyW-17">
          <mxGeometry width="50" height="50" relative="1" as="geometry">
            <mxPoint x="70" y="170" as="sourcePoint" />
            <mxPoint x="188" y="142" as="targetPoint" />
            <Array as="points" />
          </mxGeometry>
        </mxCell>
        <mxCell id="tAQa_KuwIjuZp4DGvMyW-25" value="" style="endArrow=none;html=1;entryX=0;entryY=0.5;entryDx=0;entryDy=0;exitX=1;exitY=0.3333333333333333;exitDx=0;exitDy=0;exitPerimeter=0;" edge="1" parent="1" source="tAQa_KuwIjuZp4DGvMyW-5" target="tAQa_KuwIjuZp4DGvMyW-18">
          <mxGeometry width="50" height="50" relative="1" as="geometry">
            <mxPoint x="70" y="170" as="sourcePoint" />
            <mxPoint x="198" y="152" as="targetPoint" />
            <Array as="points" />
          </mxGeometry>
        </mxCell>
        <mxCell id="tAQa_KuwIjuZp4DGvMyW-26" value="" style="endArrow=none;html=1;entryX=0;entryY=0.5;entryDx=0;entryDy=0;exitX=1;exitY=0.3333333333333333;exitDx=0;exitDy=0;exitPerimeter=0;" edge="1" parent="1" source="tAQa_KuwIjuZp4DGvMyW-5" target="tAQa_KuwIjuZp4DGvMyW-19">
          <mxGeometry width="50" height="50" relative="1" as="geometry">
            <mxPoint x="80" y="180" as="sourcePoint" />
            <mxPoint x="170.99999999999636" y="323" as="targetPoint" />
            <Array as="points" />
          </mxGeometry>
        </mxCell>
        <mxCell id="tAQa_KuwIjuZp4DGvMyW-31" value="Vote for Artists" style="ellipse;whiteSpace=wrap;html=1;fillColor=none;" vertex="1" parent="1">
          <mxGeometry x="178" y="440" width="140" height="40" as="geometry" />
        </mxCell>
        <mxCell id="tAQa_KuwIjuZp4DGvMyW-32" value="Donate to Artists" style="ellipse;whiteSpace=wrap;html=1;fillColor=none;" vertex="1" parent="1">
          <mxGeometry x="179" y="490" width="140" height="40" as="geometry" />
        </mxCell>
        <mxCell id="tAQa_KuwIjuZp4DGvMyW-33" value="Watch full auditions" style="ellipse;whiteSpace=wrap;html=1;fillColor=none;" vertex="1" parent="1">
          <mxGeometry x="179" y="630" width="139" height="40" as="geometry" />
        </mxCell>
        <mxCell id="tAQa_KuwIjuZp4DGvMyW-34" value="Name visible to Artist" style="ellipse;whiteSpace=wrap;html=1;fillColor=none;" vertex="1" parent="1">
          <mxGeometry x="255" y="560" width="140" height="30" as="geometry" />
        </mxCell>
        <mxCell id="tAQa_KuwIjuZp4DGvMyW-35" value="Anonymous" style="ellipse;whiteSpace=wrap;html=1;fillColor=none;" vertex="1" parent="1">
          <mxGeometry x="112" y="560" width="130" height="30" as="geometry" />
        </mxCell>
        <mxCell id="tAQa_KuwIjuZp4DGvMyW-38" value="" style="endArrow=open;endFill=1;endSize=12;html=1;exitX=0.5;exitY=0;exitDx=0;exitDy=0;" edge="1" parent="1" source="tAQa_KuwIjuZp4DGvMyW-35">
          <mxGeometry width="160" relative="1" as="geometry">
            <mxPoint x="160" y="440" as="sourcePoint" />
            <mxPoint x="206" y="530" as="targetPoint" />
          </mxGeometry>
        </mxCell>
        <mxCell id="tAQa_KuwIjuZp4DGvMyW-39" value="" style="endArrow=open;endFill=1;endSize=12;html=1;entryX=0.618;entryY=1.033;entryDx=0;entryDy=0;entryPerimeter=0;" edge="1" parent="1" source="tAQa_KuwIjuZp4DGvMyW-34" target="tAQa_KuwIjuZp4DGvMyW-32">
          <mxGeometry width="160" relative="1" as="geometry">
            <mxPoint x="160" y="440" as="sourcePoint" />
            <mxPoint x="320" y="440" as="targetPoint" />
          </mxGeometry>
        </mxCell>
        <mxCell id="tAQa_KuwIjuZp4DGvMyW-41" value="" style="endArrow=none;html=1;exitX=1;exitY=0.3333333333333333;exitDx=0;exitDy=0;exitPerimeter=0;entryX=0;entryY=0.5;entryDx=0;entryDy=0;" edge="1" parent="1" source="tAQa_KuwIjuZp4DGvMyW-3" target="tAQa_KuwIjuZp4DGvMyW-31">
          <mxGeometry width="50" height="50" relative="1" as="geometry">
            <mxPoint x="220" y="580" as="sourcePoint" />
            <mxPoint x="270" y="530" as="targetPoint" />
          </mxGeometry>
        </mxCell>
        <mxCell id="tAQa_KuwIjuZp4DGvMyW-42" value="" style="endArrow=none;html=1;entryX=0;entryY=0.5;entryDx=0;entryDy=0;exitX=1;exitY=0.3333333333333333;exitDx=0;exitDy=0;exitPerimeter=0;" edge="1" parent="1" source="tAQa_KuwIjuZp4DGvMyW-3" target="tAQa_KuwIjuZp4DGvMyW-32">
          <mxGeometry width="50" height="50" relative="1" as="geometry">
            <mxPoint x="50" y="540" as="sourcePoint" />
            <mxPoint x="168" y="470" as="targetPoint" />
          </mxGeometry>
        </mxCell>
        <mxCell id="tAQa_KuwIjuZp4DGvMyW-43" value="" style="endArrow=none;html=1;entryX=0;entryY=0.5;entryDx=0;entryDy=0;exitX=1;exitY=0.3333333333333333;exitDx=0;exitDy=0;exitPerimeter=0;" edge="1" parent="1" source="tAQa_KuwIjuZp4DGvMyW-3" target="tAQa_KuwIjuZp4DGvMyW-33">
          <mxGeometry width="50" height="50" relative="1" as="geometry">
            <mxPoint x="60" y="540" as="sourcePoint" />
            <mxPoint x="178" y="480" as="targetPoint" />
          </mxGeometry>
        </mxCell>
        <mxCell id="tAQa_KuwIjuZp4DGvMyW-49" value="Artists" style="shape=umlActor;verticalLabelPosition=bottom;verticalAlign=top;html=1;" vertex="1" parent="1">
          <mxGeometry x="10" y="850" width="40" height="75" as="geometry" />
        </mxCell>
        <mxCell id="tAQa_KuwIjuZp4DGvMyW-55" value="" style="shape=flexArrow;endArrow=classic;html=1;fillColor=#CCE5FF;" edge="1" parent="1">
          <mxGeometry width="50" height="50" relative="1" as="geometry">
            <mxPoint x="30" y="520" as="sourcePoint" />
            <mxPoint x="30" y="310" as="targetPoint" />
          </mxGeometry>
        </mxCell>
        <mxCell id="tAQa_KuwIjuZp4DGvMyW-56" value="" style="shape=flexArrow;endArrow=classic;html=1;fillColor=#CCE5FF;" edge="1" parent="1">
          <mxGeometry width="50" height="50" relative="1" as="geometry">
            <mxPoint x="29.41" y="840" as="sourcePoint" />
            <mxPoint x="29.41" y="630" as="targetPoint" />
          </mxGeometry>
        </mxCell>
        <mxCell id="tAQa_KuwIjuZp4DGvMyW-57" value="Edit profile info" style="ellipse;whiteSpace=wrap;html=1;fillColor=none;" vertex="1" parent="1">
          <mxGeometry x="178" y="810" width="139" height="40" as="geometry" />
        </mxCell>
        <mxCell id="tAQa_KuwIjuZp4DGvMyW-58" value="Join chat rooms" style="ellipse;whiteSpace=wrap;html=1;fillColor=none;" vertex="1" parent="1">
          <mxGeometry x="179" y="900" width="139" height="40" as="geometry" />
        </mxCell>
        <mxCell id="tAQa_KuwIjuZp4DGvMyW-59" value="" style="endArrow=none;html=1;fillColor=#CCE5FF;exitX=1;exitY=0.3333333333333333;exitDx=0;exitDy=0;exitPerimeter=0;entryX=0;entryY=0.5;entryDx=0;entryDy=0;" edge="1" parent="1" source="tAQa_KuwIjuZp4DGvMyW-49" target="tAQa_KuwIjuZp4DGvMyW-57">
          <mxGeometry width="50" height="50" relative="1" as="geometry">
            <mxPoint x="220" y="810" as="sourcePoint" />
            <mxPoint x="270" y="760" as="targetPoint" />
          </mxGeometry>
        </mxCell>
        <mxCell id="tAQa_KuwIjuZp4DGvMyW-60" value="" style="endArrow=none;html=1;fillColor=#CCE5FF;entryX=0;entryY=0.5;entryDx=0;entryDy=0;exitX=1;exitY=0.3333333333333333;exitDx=0;exitDy=0;exitPerimeter=0;" edge="1" parent="1" source="tAQa_KuwIjuZp4DGvMyW-49" target="tAQa_KuwIjuZp4DGvMyW-58">
          <mxGeometry width="50" height="50" relative="1" as="geometry">
            <mxPoint x="60" y="870" as="sourcePoint" />
            <mxPoint x="187.99999999999977" y="794" as="targetPoint" />
          </mxGeometry>
        </mxCell>
        <mxCell id="tAQa_KuwIjuZp4DGvMyW-61" value="Coaches / Judges&lt;br&gt;" style="shape=umlActor;verticalLabelPosition=bottom;verticalAlign=top;html=1;whiteSpace=wrap;" vertex="1" parent="1">
          <mxGeometry x="890" y="1015" width="40" height="75" as="geometry" />
        </mxCell>
        <mxCell id="tAQa_KuwIjuZp4DGvMyW-63" value="Host chat rooms" style="ellipse;whiteSpace=wrap;html=1;fillColor=none;" vertex="1" parent="1">
          <mxGeometry x="650" y="1020" width="139" height="40" as="geometry" />
        </mxCell>
        <mxCell id="tAQa_KuwIjuZp4DGvMyW-64" value="" style="endArrow=none;html=1;fillColor=#CCE5FF;exitX=0;exitY=0.3333333333333333;exitDx=0;exitDy=0;exitPerimeter=0;entryX=1;entryY=0.5;entryDx=0;entryDy=0;" edge="1" parent="1" source="tAQa_KuwIjuZp4DGvMyW-61" target="tAQa_KuwIjuZp4DGvMyW-63">
          <mxGeometry width="50" height="50" relative="1" as="geometry">
            <mxPoint x="220" y="1020" as="sourcePoint" />
            <mxPoint x="790" y="1040" as="targetPoint" />
          </mxGeometry>
        </mxCell>
        <mxCell id="tAQa_KuwIjuZp4DGvMyW-65" value="System administrator&lt;br&gt;" style="shape=umlActor;verticalLabelPosition=bottom;verticalAlign=top;html=1;whiteSpace=wrap;" vertex="1" parent="1">
          <mxGeometry x="10" y="1150" width="40" height="75" as="geometry" />
        </mxCell>
        <mxCell id="tAQa_KuwIjuZp4DGvMyW-67" value="Manage votable times" style="ellipse;whiteSpace=wrap;html=1;fillColor=none;" vertex="1" parent="1">
          <mxGeometry x="161" y="1310" width="139" height="40" as="geometry" />
        </mxCell>
        <mxCell id="tAQa_KuwIjuZp4DGvMyW-68" value="Manage user requests" style="ellipse;whiteSpace=wrap;html=1;fillColor=none;" vertex="1" parent="1">
          <mxGeometry x="160" y="1230" width="139" height="40" as="geometry" />
        </mxCell>
        <mxCell id="tAQa_KuwIjuZp4DGvMyW-69" value="Remove User" style="ellipse;whiteSpace=wrap;html=1;fillColor=none;" vertex="1" parent="1">
          <mxGeometry x="160.5" y="1150" width="139" height="40" as="geometry" />
        </mxCell>
        <mxCell id="tAQa_KuwIjuZp4DGvMyW-70" value="Add user" style="ellipse;whiteSpace=wrap;html=1;fillColor=none;" vertex="1" parent="1">
          <mxGeometry x="162" y="1070" width="139" height="40" as="geometry" />
        </mxCell>
        <mxCell id="tAQa_KuwIjuZp4DGvMyW-72" value="View vote results" style="ellipse;whiteSpace=wrap;html=1;fillColor=none;" vertex="1" parent="1">
          <mxGeometry x="162" y="1390" width="139" height="40" as="geometry" />
        </mxCell>
        <mxCell id="tAQa_KuwIjuZp4DGvMyW-73" value="&amp;lt;&amp;lt;include&amp;gt;&amp;gt;" style="edgeStyle=none;html=1;endArrow=open;verticalAlign=bottom;dashed=1;labelBackgroundColor=none;fillColor=#CCE5FF;fontSize=18;" edge="1" parent="1">
          <mxGeometry width="160" relative="1" as="geometry">
            <mxPoint x="301" y="361.40999999999997" as="sourcePoint" />
            <mxPoint x="461" y="361.40999999999997" as="targetPoint" />
          </mxGeometry>
        </mxCell>
        <mxCell id="tAQa_KuwIjuZp4DGvMyW-74" value="Reserve tickets" style="ellipse;whiteSpace=wrap;html=1;fillColor=none;" vertex="1" parent="1">
          <mxGeometry x="460" y="342" width="140" height="40" as="geometry" />
        </mxCell>
      </root>
    </mxGraphModel>
  </diagram>
</mxfile>
